<svg width="63" height="63" viewBox="0 0 63 63" fill="none" xmlns="http://www.w3.org/2000/svg">
<path d="M31.8625 0H31.7204C14.5232 0 0.582031 13.9452 0.582031 31.1475V31.2897C0.582031 48.492 14.5232 62.4373 31.7204 62.4373H31.8625C49.0598 62.4373 63.0009 48.492 63.0009 31.2897V31.1475C63.0009 13.9452 49.0598 0 31.8625 0Z" fill="url(#paint0_linear_168_988)"/>
<path d="M41.4479 12.7026H22.1338C16.7979 12.7026 12.457 17.0448 12.457 22.3822V40.0571C12.457 45.3945 16.7979 49.7367 22.1338 49.7367H41.4479C46.7838 49.7367 51.1247 45.3945 51.1247 40.0571V22.3822C51.1247 17.0448 46.7838 12.7026 41.4479 12.7026ZM15.8707 22.3822C15.8707 18.9282 18.6808 16.1173 22.1338 16.1173H41.4479C44.9009 16.1173 47.711 18.9282 47.711 22.3822V40.0571C47.711 43.5111 44.9009 46.322 41.4479 46.322H22.1338C18.6808 46.322 15.8707 43.5111 15.8707 40.0571V22.3822Z" fill="white"/>
<path d="M31.7901 40.2212C36.752 40.2212 40.7911 36.1831 40.7911 31.2175C40.7911 26.252 36.7542 22.2139 31.7901 22.2139C26.826 22.2139 22.7891 26.252 22.7891 31.2175C22.7891 36.1831 26.826 40.2212 31.7901 40.2212ZM31.7901 25.6307C34.8713 25.6307 37.3775 28.1376 37.3775 31.2197C37.3775 34.3019 34.8713 36.8087 31.7901 36.8087C28.7088 36.8087 26.2027 34.3019 26.2027 31.2197C26.2027 28.1376 28.7088 25.6307 31.7901 25.6307Z" fill="white"/>
<path d="M41.6244 23.6686C42.9606 23.6686 44.0496 22.5814 44.0496 21.2427C44.0496 19.904 42.9628 18.8168 41.6244 18.8168C40.2861 18.8168 39.1992 19.904 39.1992 21.2427C39.1992 22.5814 40.2861 23.6686 41.6244 23.6686Z" fill="white"/>
<defs>
<linearGradient id="paint0_linear_168_988" x1="9.70114" y1="53.3155" x2="53.8948" y2="9.137" gradientUnits="userSpaceOnUse">
<stop stop-color="#FAAD4F"/>
<stop offset="0.35" stop-color="#DD2A7B"/>
<stop offset="0.62" stop-color="#9537B0"/>
<stop offset="1" stop-color="#515BD4"/>
</linearGradient>
</defs>
</svg>
