<svg width="63" height="63" viewBox="0 0 63 63" fill="none" xmlns="http://www.w3.org/2000/svg">
<path d="M62.4189 31.2197C62.4189 46.9871 50.7346 60.0223 35.5558 62.1376C34.1365 62.3344 32.6845 62.4373 31.2105 62.4373C29.5092 62.4373 27.8384 62.3016 26.2114 62.0391C11.3497 59.646 0 46.7574 0 31.2197C0 13.978 13.9739 0 31.2083 0C48.4428 0 62.4189 13.978 62.4189 31.2197Z" fill="#1877F2"/>
<path d="M35.5561 25.0664V31.8672H43.9667L42.6349 41.0284H35.5561V62.1354C34.1369 62.3323 32.6848 62.4351 31.2109 62.4351C29.5095 62.4351 27.8388 62.2995 26.2118 62.037V41.0284H18.4551V31.8672H26.2118V23.5461C26.2118 18.3836 30.3952 14.1968 35.5583 14.1968V14.2012C35.5736 14.2012 35.5868 14.1968 35.6021 14.1968H43.9689V22.1198H38.5018C36.877 22.1198 35.5583 23.4389 35.5583 25.0642L35.5561 25.0664Z" fill="white"/>
</svg>
