<svg width="32" height="38" viewBox="0 0 32 38" fill="none" xmlns="http://www.w3.org/2000/svg">
<path d="M29.75 15.9166C29.75 26.7083 15.875 35.9583 15.875 35.9583C15.875 35.9583 2 26.7083 2 15.9166C2 12.2367 3.46183 8.70759 6.06389 6.10552C8.66596 3.50345 12.1951 2.04163 15.875 2.04163C19.5549 2.04163 23.084 3.50345 25.6861 6.10552C28.2882 8.70759 29.75 12.2367 29.75 15.9166Z" stroke="#E18507" stroke-width="3.08333" stroke-linecap="round" stroke-linejoin="round"/>
<path d="M15.875 20.5799C18.4811 20.5799 20.5938 18.4579 20.5938 15.8403C20.5938 13.2227 18.4811 11.1007 15.875 11.1007C13.2689 11.1007 11.1562 13.2227 11.1562 15.8403C11.1562 18.4579 13.2689 20.5799 15.875 20.5799Z" stroke="#E18507" stroke-width="3.08333" stroke-linecap="round" stroke-linejoin="round"/>
</svg>
