<svg width="35" height="34" viewBox="0 0 35 34" fill="none" xmlns="http://www.w3.org/2000/svg">
<path d="M32.7487 24.6405V29.2655C32.7505 29.6948 32.6625 30.1198 32.4905 30.5132C32.3185 30.9066 32.0662 31.2598 31.7499 31.55C31.4335 31.8403 31.06 32.0613 30.6532 32.1988C30.2465 32.3364 29.8155 32.3875 29.3879 32.3488C24.6439 31.8334 20.087 30.2123 16.0833 27.6159C12.3584 25.2489 9.2003 22.0908 6.83332 18.3659C4.22787 14.344 2.60645 9.76494 2.1004 4.99965C2.06188 4.57333 2.11254 4.14366 2.24918 3.73799C2.38581 3.33232 2.60541 2.95955 2.894 2.6434C3.18259 2.32726 3.53385 2.07466 3.92541 1.90171C4.31698 1.72875 4.74026 1.63922 5.16832 1.63882H9.79332C10.5415 1.63146 11.2668 1.8964 11.8341 2.38427C12.4014 2.87213 12.7719 3.54964 12.8767 4.29049C13.0719 5.77059 13.4339 7.22386 13.9558 8.62257C14.1632 9.17437 14.2081 9.77407 14.0852 10.3506C13.9622 10.9271 13.6766 11.4563 13.2621 11.8755L11.3042 13.8334C13.4988 17.693 16.6945 20.8888 20.5542 23.0834L22.5121 21.1255C22.9312 20.711 23.4604 20.4253 24.037 20.3024C24.6135 20.1794 25.2132 20.2243 25.765 20.4317C27.1637 20.9537 28.617 21.3157 30.0971 21.5109C30.846 21.6166 31.5299 21.9938 32.0188 22.5708C32.5077 23.1478 32.7675 23.8844 32.7487 24.6405Z" stroke="#E18507" stroke-width="3.08333" stroke-linecap="round" stroke-linejoin="round"/>
</svg>
